<mxfile host="app.diagrams.net" agent="Mozilla/5.0 (Macintosh; Intel Mac OS X 10_15_7) AppleWebKit/605.1.15 (KHTML, like Gecko) Version/17.6 Safari/605.1.15" version="24.7.12">
  <diagram name="Seite-1" id="XR28Z-_bOLCjElt4l6ZT">
    <mxGraphModel dx="1095" dy="281" grid="1" gridSize="10" guides="1" tooltips="1" connect="1" arrows="1" fold="1" page="1" pageScale="1" pageWidth="827" pageHeight="1169" math="0" shadow="0">
      <root>
        <mxCell id="0" />
        <mxCell id="1" parent="0" />
        <mxCell id="rkaPlmt7BP-HJTR2OEBb-1" value="&lt;font style=&quot;font-size: 27px;&quot;&gt;Any&lt;/font&gt;" style="rounded=1;whiteSpace=wrap;html=1;fillColor=#ccc1ec;strokeColor=none;" vertex="1" parent="1">
          <mxGeometry x="120" y="200" width="50" height="40" as="geometry" />
        </mxCell>
        <mxCell id="rkaPlmt7BP-HJTR2OEBb-2" value="&lt;font style=&quot;font-size: 27px;&quot;&gt;&amp;nbsp; sufficiently&lt;/font&gt;" style="rounded=1;whiteSpace=wrap;html=1;fillColor=#cbedca;strokeColor=none;" vertex="1" parent="1">
          <mxGeometry x="170" y="200" width="150" height="40" as="geometry" />
        </mxCell>
        <mxCell id="rkaPlmt7BP-HJTR2OEBb-3" value="&lt;font style=&quot;font-size: 27px;&quot;&gt;&amp;nbsp; advanced&lt;/font&gt;" style="rounded=1;whiteSpace=wrap;html=1;fillColor=#f2dbb5;strokeColor=none;" vertex="1" parent="1">
          <mxGeometry x="320" y="200" width="140" height="40" as="geometry" />
        </mxCell>
        <mxCell id="rkaPlmt7BP-HJTR2OEBb-4" value="&lt;font style=&quot;font-size: 27px;&quot;&gt;&amp;nbsp; technology&lt;/font&gt;" style="rounded=1;whiteSpace=wrap;html=1;fillColor=#edb5b4;strokeColor=none;" vertex="1" parent="1">
          <mxGeometry x="460" y="200" width="150" height="40" as="geometry" />
        </mxCell>
        <mxCell id="rkaPlmt7BP-HJTR2OEBb-5" value="&lt;span style=&quot;font-size: 27px;&quot;&gt;&amp;nbsp; is&lt;/span&gt;" style="rounded=1;whiteSpace=wrap;html=1;fillColor=#b8dcf0;strokeColor=none;" vertex="1" parent="1">
          <mxGeometry x="610" y="200" width="40" height="40" as="geometry" />
        </mxCell>
        <mxCell id="rkaPlmt7BP-HJTR2OEBb-6" value="&lt;font style=&quot;font-size: 27px;&quot;&gt;&amp;nbsp; ind&lt;/font&gt;" style="rounded=1;whiteSpace=wrap;html=1;fillColor=#ccc1ec;strokeColor=none;" vertex="1" parent="1">
          <mxGeometry x="650" y="200" width="60" height="40" as="geometry" />
        </mxCell>
        <mxCell id="rkaPlmt7BP-HJTR2OEBb-7" value="&lt;div style=&quot;font-size: 27px;&quot;&gt;&lt;font style=&quot;font-size: 27px;&quot;&gt;istinguish&lt;/font&gt;&lt;/div&gt;" style="rounded=1;whiteSpace=wrap;html=1;fillColor=#CBEDCA;strokeColor=none;" vertex="1" parent="1">
          <mxGeometry x="710" y="200" width="120" height="40" as="geometry" />
        </mxCell>
        <mxCell id="rkaPlmt7BP-HJTR2OEBb-8" value="&lt;font style=&quot;font-size: 27px;&quot;&gt;able&lt;/font&gt;" style="rounded=1;whiteSpace=wrap;html=1;fillColor=#f2dbb5;strokeColor=none;" vertex="1" parent="1">
          <mxGeometry x="830" y="200" width="60" height="40" as="geometry" />
        </mxCell>
        <mxCell id="rkaPlmt7BP-HJTR2OEBb-9" value="&lt;font style=&quot;font-size: 27px;&quot;&gt;&amp;nbsp; from&lt;/font&gt;" style="rounded=1;whiteSpace=wrap;html=1;fillColor=#edb5b4;strokeColor=none;" vertex="1" parent="1">
          <mxGeometry x="890" y="200" width="80" height="40" as="geometry" />
        </mxCell>
        <mxCell id="rkaPlmt7BP-HJTR2OEBb-10" value="&lt;span style=&quot;font-size: 27px;&quot;&gt;&amp;nbsp; magic&lt;/span&gt;" style="rounded=1;whiteSpace=wrap;html=1;fillColor=#b8dcf0;strokeColor=none;" vertex="1" parent="1">
          <mxGeometry x="970" y="200" width="90" height="40" as="geometry" />
        </mxCell>
        <mxCell id="rkaPlmt7BP-HJTR2OEBb-12" value="" style="verticalLabelPosition=bottom;shadow=0;dashed=0;align=center;html=1;verticalAlign=top;strokeWidth=4;shape=mxgraph.mockup.markup.curlyBrace;whiteSpace=wrap;strokeColor=#000000;rotation=-180;" vertex="1" parent="1">
          <mxGeometry x="120" y="243" width="50" height="27" as="geometry" />
        </mxCell>
        <mxCell id="rkaPlmt7BP-HJTR2OEBb-13" value="&lt;pre style=&quot;text-align: start; border: 0px; font-stretch: inherit; line-height: inherit; font-family: inherit; font-size-adjust: inherit; font-kerning: inherit; font-variant-alternates: inherit; font-variant-ligatures: inherit; font-variant-numeric: inherit; font-variant-east-asian: inherit; font-variant-position: inherit; font-feature-settings: inherit; font-optical-sizing: inherit; font-variation-settings: inherit; margin-top: 0px; margin-bottom: 0px; padding: 0px; vertical-align: initial; caret-color: rgb(51, 51, 51); color: rgb(51, 51, 51); background-color: rgba(107, 64, 216, 0.3);&quot;&gt;&lt;font style=&quot;font-size: 20px;&quot;&gt;&lt;b&gt;8780&lt;/b&gt;&lt;/font&gt;&lt;/pre&gt;" style="text;html=1;align=center;verticalAlign=middle;whiteSpace=wrap;rounded=0;" vertex="1" parent="1">
          <mxGeometry x="115" y="270" width="60" height="30" as="geometry" />
        </mxCell>
        <mxCell id="rkaPlmt7BP-HJTR2OEBb-14" value="" style="verticalLabelPosition=bottom;shadow=0;dashed=0;align=center;html=1;verticalAlign=top;strokeWidth=4;shape=mxgraph.mockup.markup.curlyBrace;whiteSpace=wrap;strokeColor=#000000;rotation=-180;" vertex="1" parent="1">
          <mxGeometry x="175" y="250" width="145" height="20" as="geometry" />
        </mxCell>
        <mxCell id="rkaPlmt7BP-HJTR2OEBb-15" value="&lt;pre style=&quot;text-align: start; border: 0px; font-stretch: inherit; line-height: inherit; font-family: inherit; font-size-adjust: inherit; font-kerning: inherit; font-variant-alternates: inherit; font-variant-ligatures: inherit; font-variant-numeric: inherit; font-variant-east-asian: inherit; font-variant-position: inherit; font-feature-settings: inherit; font-optical-sizing: inherit; font-variation-settings: inherit; margin-top: 0px; margin-bottom: 0px; padding: 0px; vertical-align: initial; caret-color: rgb(51, 51, 51); color: rgb(51, 51, 51); background-color: rgba(104, 222, 122, 0.4);&quot;&gt;&lt;font style=&quot;font-size: 20px;&quot;&gt;&lt;b&gt;40044&lt;/b&gt;&lt;/font&gt;&lt;/pre&gt;" style="text;html=1;align=center;verticalAlign=middle;whiteSpace=wrap;rounded=0;" vertex="1" parent="1">
          <mxGeometry x="215" y="270" width="60" height="30" as="geometry" />
        </mxCell>
        <mxCell id="rkaPlmt7BP-HJTR2OEBb-16" value="" style="verticalLabelPosition=bottom;shadow=0;dashed=0;align=center;html=1;verticalAlign=top;strokeWidth=4;shape=mxgraph.mockup.markup.curlyBrace;whiteSpace=wrap;strokeColor=#000000;rotation=-180;" vertex="1" parent="1">
          <mxGeometry x="320" y="250" width="135" height="20" as="geometry" />
        </mxCell>
        <mxCell id="rkaPlmt7BP-HJTR2OEBb-17" value="&lt;pre style=&quot;text-align: start; border: 0px; font-stretch: inherit; line-height: inherit; font-family: inherit; font-size-adjust: inherit; font-kerning: inherit; font-variant-alternates: inherit; font-variant-ligatures: inherit; font-variant-numeric: inherit; font-variant-east-asian: inherit; font-variant-position: inherit; font-feature-settings: inherit; font-optical-sizing: inherit; font-variation-settings: inherit; margin-top: 0px; margin-bottom: 0px; padding: 0px; vertical-align: initial; caret-color: rgb(51, 51, 51); color: rgb(51, 51, 51);&quot;&gt;&lt;pre style=&quot;border: 0px; font-stretch: inherit; line-height: inherit; font-family: inherit; font-size-adjust: inherit; font-kerning: inherit; font-variant-alternates: inherit; font-variant-ligatures: inherit; font-variant-numeric: inherit; font-variant-east-asian: inherit; font-variant-position: inherit; font-feature-settings: inherit; font-optical-sizing: inherit; font-variation-settings: inherit; margin-top: 0px; margin-bottom: 0px; padding: 0px; vertical-align: initial;&quot;&gt;&lt;b&gt;&lt;font style=&quot;font-size: 20px;&quot;&gt;11084&lt;/font&gt;&lt;/b&gt;&lt;/pre&gt;&lt;/pre&gt;" style="text;html=1;align=center;verticalAlign=middle;whiteSpace=wrap;rounded=0;labelBackgroundColor=#F2DBB5;" vertex="1" parent="1">
          <mxGeometry x="360" y="270" width="60" height="30" as="geometry" />
        </mxCell>
        <mxCell id="rkaPlmt7BP-HJTR2OEBb-18" value="&lt;pre style=&quot;text-align: start; border: 0px; font-stretch: inherit; line-height: inherit; font-family: inherit; font-size-adjust: inherit; font-kerning: inherit; font-variant-alternates: inherit; font-variant-ligatures: inherit; font-variant-numeric: inherit; font-variant-east-asian: inherit; font-variant-position: inherit; font-feature-settings: inherit; font-optical-sizing: inherit; font-variation-settings: inherit; margin-top: 0px; margin-bottom: 0px; padding: 0px; vertical-align: initial; caret-color: rgb(51, 51, 51); color: rgb(51, 51, 51);&quot;&gt;&lt;pre style=&quot;border: 0px; font-stretch: inherit; line-height: inherit; font-family: inherit; font-size-adjust: inherit; font-kerning: inherit; font-variant-alternates: inherit; font-variant-ligatures: inherit; font-variant-numeric: inherit; font-variant-east-asian: inherit; font-variant-position: inherit; font-feature-settings: inherit; font-optical-sizing: inherit; font-variation-settings: inherit; margin-top: 0px; margin-bottom: 0px; padding: 0px; vertical-align: initial;&quot;&gt;&lt;pre style=&quot;border: 0px; font-stretch: inherit; line-height: inherit; font-family: inherit; font-size-adjust: inherit; font-kerning: inherit; font-variant-alternates: inherit; font-variant-ligatures: inherit; font-variant-numeric: inherit; font-variant-east-asian: inherit; font-variant-position: inherit; font-feature-settings: inherit; font-optical-sizing: inherit; font-variation-settings: inherit; margin-top: 0px; margin-bottom: 0px; padding: 0px; vertical-align: initial;&quot;&gt;&lt;b&gt;&lt;font style=&quot;font-size: 20px;&quot;&gt;5557&lt;/font&gt;&lt;/b&gt;&lt;/pre&gt;&lt;/pre&gt;&lt;/pre&gt;" style="text;html=1;align=center;verticalAlign=middle;whiteSpace=wrap;rounded=0;labelBackgroundColor=#EDB5B4;" vertex="1" parent="1">
          <mxGeometry x="502.5" y="270" width="60" height="30" as="geometry" />
        </mxCell>
        <mxCell id="rkaPlmt7BP-HJTR2OEBb-19" value="" style="verticalLabelPosition=bottom;shadow=0;dashed=0;align=center;html=1;verticalAlign=top;strokeWidth=4;shape=mxgraph.mockup.markup.curlyBrace;whiteSpace=wrap;strokeColor=#000000;rotation=-180;" vertex="1" parent="1">
          <mxGeometry x="460" y="250" width="145" height="20" as="geometry" />
        </mxCell>
        <mxCell id="rkaPlmt7BP-HJTR2OEBb-20" value="" style="verticalLabelPosition=bottom;shadow=0;dashed=0;align=center;html=1;verticalAlign=top;strokeWidth=4;shape=mxgraph.mockup.markup.curlyBrace;whiteSpace=wrap;strokeColor=#000000;rotation=-180;" vertex="1" parent="1">
          <mxGeometry x="607.5" y="241" width="42.5" height="29" as="geometry" />
        </mxCell>
        <mxCell id="rkaPlmt7BP-HJTR2OEBb-21" value="&lt;pre style=&quot;text-align: start; border: 0px; font-stretch: inherit; line-height: inherit; font-family: inherit; font-size-adjust: inherit; font-kerning: inherit; font-variant-alternates: inherit; font-variant-ligatures: inherit; font-variant-numeric: inherit; font-variant-east-asian: inherit; font-variant-position: inherit; font-feature-settings: inherit; font-optical-sizing: inherit; font-variation-settings: inherit; margin-top: 0px; margin-bottom: 0px; padding: 0px; vertical-align: initial; caret-color: rgb(51, 51, 51); color: rgb(51, 51, 51);&quot;&gt;&lt;pre style=&quot;border: 0px; font-stretch: inherit; line-height: inherit; font-family: inherit; font-size-adjust: inherit; font-kerning: inherit; font-variant-alternates: inherit; font-variant-ligatures: inherit; font-variant-numeric: inherit; font-variant-east-asian: inherit; font-variant-position: inherit; font-feature-settings: inherit; font-optical-sizing: inherit; font-variation-settings: inherit; margin-top: 0px; margin-bottom: 0px; padding: 0px; vertical-align: initial;&quot;&gt;&lt;pre style=&quot;border: 0px; font-stretch: inherit; line-height: inherit; font-family: inherit; font-size-adjust: inherit; font-kerning: inherit; font-variant-alternates: inherit; font-variant-ligatures: inherit; font-variant-numeric: inherit; font-variant-east-asian: inherit; font-variant-position: inherit; font-feature-settings: inherit; font-optical-sizing: inherit; font-variation-settings: inherit; margin-top: 0px; margin-bottom: 0px; padding: 0px; vertical-align: initial;&quot;&gt;&lt;pre style=&quot;border: 0px; font-stretch: inherit; line-height: inherit; font-family: inherit; font-size-adjust: inherit; font-kerning: inherit; font-variant-alternates: inherit; font-variant-ligatures: inherit; font-variant-numeric: inherit; font-variant-east-asian: inherit; font-variant-position: inherit; font-feature-settings: inherit; font-optical-sizing: inherit; font-variation-settings: inherit; margin-top: 0px; margin-bottom: 0px; padding: 0px; vertical-align: initial;&quot;&gt;&lt;b&gt;&lt;font style=&quot;font-size: 20px;&quot;&gt;374&lt;/font&gt;&lt;/b&gt;&lt;/pre&gt;&lt;/pre&gt;&lt;/pre&gt;&lt;/pre&gt;" style="text;html=1;align=center;verticalAlign=middle;whiteSpace=wrap;rounded=0;labelBackgroundColor=#B8DCF0;" vertex="1" parent="1">
          <mxGeometry x="598.75" y="270" width="60" height="30" as="geometry" />
        </mxCell>
        <mxCell id="rkaPlmt7BP-HJTR2OEBb-22" value="" style="verticalLabelPosition=bottom;shadow=0;dashed=0;align=center;html=1;verticalAlign=top;strokeWidth=4;shape=mxgraph.mockup.markup.curlyBrace;whiteSpace=wrap;strokeColor=#000000;rotation=-180;" vertex="1" parent="1">
          <mxGeometry x="650" y="246" width="60.5" height="24" as="geometry" />
        </mxCell>
        <mxCell id="rkaPlmt7BP-HJTR2OEBb-25" value="&lt;pre style=&quot;text-align: start; border: 0px; font-stretch: inherit; line-height: inherit; font-family: inherit; font-size-adjust: inherit; font-kerning: inherit; font-variant-alternates: inherit; font-variant-ligatures: inherit; font-variant-numeric: inherit; font-variant-east-asian: inherit; font-variant-position: inherit; font-feature-settings: inherit; font-optical-sizing: inherit; font-variation-settings: inherit; margin-top: 0px; margin-bottom: 0px; padding: 0px; vertical-align: initial; caret-color: rgb(51, 51, 51); color: rgb(51, 51, 51); background-color: rgba(107, 64, 216, 0.3);&quot;&gt;&lt;font style=&quot;font-size: 20px;&quot;&gt;&lt;b&gt;1280&lt;/b&gt;&lt;/font&gt;&lt;/pre&gt;" style="text;html=1;align=center;verticalAlign=middle;whiteSpace=wrap;rounded=0;" vertex="1" parent="1">
          <mxGeometry x="652.5" y="270" width="60" height="30" as="geometry" />
        </mxCell>
        <mxCell id="rkaPlmt7BP-HJTR2OEBb-26" value="" style="verticalLabelPosition=bottom;shadow=0;dashed=0;align=center;html=1;verticalAlign=top;strokeWidth=4;shape=mxgraph.mockup.markup.curlyBrace;whiteSpace=wrap;strokeColor=#000000;rotation=-180;" vertex="1" parent="1">
          <mxGeometry x="710" y="250" width="119.5" height="20" as="geometry" />
        </mxCell>
        <mxCell id="rkaPlmt7BP-HJTR2OEBb-27" value="" style="verticalLabelPosition=bottom;shadow=0;dashed=0;align=center;html=1;verticalAlign=top;strokeWidth=4;shape=mxgraph.mockup.markup.curlyBrace;whiteSpace=wrap;strokeColor=#000000;rotation=-180;" vertex="1" parent="1">
          <mxGeometry x="830" y="246" width="62.5" height="24" as="geometry" />
        </mxCell>
        <mxCell id="rkaPlmt7BP-HJTR2OEBb-28" value="" style="verticalLabelPosition=bottom;shadow=0;dashed=0;align=center;html=1;verticalAlign=top;strokeWidth=4;shape=mxgraph.mockup.markup.curlyBrace;whiteSpace=wrap;strokeColor=#000000;rotation=-180;" vertex="1" parent="1">
          <mxGeometry x="892.5" y="250" width="76.5" height="20" as="geometry" />
        </mxCell>
        <mxCell id="rkaPlmt7BP-HJTR2OEBb-29" value="" style="verticalLabelPosition=bottom;shadow=0;dashed=0;align=center;html=1;verticalAlign=top;strokeWidth=4;shape=mxgraph.mockup.markup.curlyBrace;whiteSpace=wrap;strokeColor=#000000;rotation=-180;" vertex="1" parent="1">
          <mxGeometry x="972.5" y="250" width="86.5" height="20" as="geometry" />
        </mxCell>
        <mxCell id="rkaPlmt7BP-HJTR2OEBb-31" value="&lt;pre style=&quot;text-align: start; border: 0px; font-stretch: inherit; line-height: inherit; font-family: inherit; font-size-adjust: inherit; font-kerning: inherit; font-variant-alternates: inherit; font-variant-ligatures: inherit; font-variant-numeric: inherit; font-variant-east-asian: inherit; font-variant-position: inherit; font-feature-settings: inherit; font-optical-sizing: inherit; font-variation-settings: inherit; margin-top: 0px; margin-bottom: 0px; padding: 0px; vertical-align: initial; caret-color: rgb(51, 51, 51); color: rgb(51, 51, 51); background-color: rgba(104, 222, 122, 0.4);&quot;&gt;&lt;font style=&quot;font-size: 20px;&quot;&gt;&lt;b&gt;89747&lt;/b&gt;&lt;/font&gt;&lt;/pre&gt;" style="text;html=1;align=center;verticalAlign=middle;whiteSpace=wrap;rounded=0;" vertex="1" parent="1">
          <mxGeometry x="740" y="270" width="60" height="30" as="geometry" />
        </mxCell>
        <mxCell id="rkaPlmt7BP-HJTR2OEBb-32" value="&lt;pre style=&quot;text-align: start; border: 0px; font-stretch: inherit; line-height: inherit; font-family: inherit; font-size-adjust: inherit; font-kerning: inherit; font-variant-alternates: inherit; font-variant-ligatures: inherit; font-variant-numeric: inherit; font-variant-east-asian: inherit; font-variant-position: inherit; font-feature-settings: inherit; font-optical-sizing: inherit; font-variation-settings: inherit; margin-top: 0px; margin-bottom: 0px; padding: 0px; vertical-align: initial; caret-color: rgb(51, 51, 51); color: rgb(51, 51, 51);&quot;&gt;&lt;pre style=&quot;border: 0px; font-stretch: inherit; line-height: inherit; font-family: inherit; font-size-adjust: inherit; font-kerning: inherit; font-variant-alternates: inherit; font-variant-ligatures: inherit; font-variant-numeric: inherit; font-variant-east-asian: inherit; font-variant-position: inherit; font-feature-settings: inherit; font-optical-sizing: inherit; font-variation-settings: inherit; margin-top: 0px; margin-bottom: 0px; padding: 0px; vertical-align: initial;&quot;&gt;&lt;b&gt;&lt;font style=&quot;font-size: 20px;&quot;&gt;11084&lt;/font&gt;&lt;/b&gt;&lt;/pre&gt;&lt;/pre&gt;" style="text;html=1;align=center;verticalAlign=middle;whiteSpace=wrap;rounded=0;labelBackgroundColor=#F2DBB5;" vertex="1" parent="1">
          <mxGeometry x="831.25" y="270" width="60" height="30" as="geometry" />
        </mxCell>
        <mxCell id="rkaPlmt7BP-HJTR2OEBb-33" value="&lt;pre style=&quot;text-align: start; border: 0px; font-stretch: inherit; line-height: inherit; font-family: inherit; font-size-adjust: inherit; font-kerning: inherit; font-variant-alternates: inherit; font-variant-ligatures: inherit; font-variant-numeric: inherit; font-variant-east-asian: inherit; font-variant-position: inherit; font-feature-settings: inherit; font-optical-sizing: inherit; font-variation-settings: inherit; margin-top: 0px; margin-bottom: 0px; padding: 0px; vertical-align: initial; caret-color: rgb(51, 51, 51); color: rgb(51, 51, 51);&quot;&gt;&lt;pre style=&quot;border: 0px; font-stretch: inherit; line-height: inherit; font-family: inherit; font-size-adjust: inherit; font-kerning: inherit; font-variant-alternates: inherit; font-variant-ligatures: inherit; font-variant-numeric: inherit; font-variant-east-asian: inherit; font-variant-position: inherit; font-feature-settings: inherit; font-optical-sizing: inherit; font-variation-settings: inherit; margin-top: 0px; margin-bottom: 0px; padding: 0px; vertical-align: initial;&quot;&gt;&lt;pre style=&quot;border: 0px; font-stretch: inherit; line-height: inherit; font-family: inherit; font-size-adjust: inherit; font-kerning: inherit; font-variant-alternates: inherit; font-variant-ligatures: inherit; font-variant-numeric: inherit; font-variant-east-asian: inherit; font-variant-position: inherit; font-feature-settings: inherit; font-optical-sizing: inherit; font-variation-settings: inherit; margin-top: 0px; margin-bottom: 0px; padding: 0px; vertical-align: initial;&quot;&gt;&lt;b&gt;&lt;font style=&quot;font-size: 20px;&quot;&gt;5557&lt;/font&gt;&lt;/b&gt;&lt;/pre&gt;&lt;/pre&gt;&lt;/pre&gt;" style="text;html=1;align=center;verticalAlign=middle;whiteSpace=wrap;rounded=0;labelBackgroundColor=#EDB5B4;" vertex="1" parent="1">
          <mxGeometry x="901.25" y="270" width="60" height="30" as="geometry" />
        </mxCell>
        <mxCell id="rkaPlmt7BP-HJTR2OEBb-34" value="&lt;pre style=&quot;text-align: start; border: 0px; font-stretch: inherit; line-height: inherit; font-family: inherit; font-size-adjust: inherit; font-kerning: inherit; font-variant-alternates: inherit; font-variant-ligatures: inherit; font-variant-numeric: inherit; font-variant-east-asian: inherit; font-variant-position: inherit; font-feature-settings: inherit; font-optical-sizing: inherit; font-variation-settings: inherit; margin-top: 0px; margin-bottom: 0px; padding: 0px; vertical-align: initial; caret-color: rgb(51, 51, 51); color: rgb(51, 51, 51);&quot;&gt;&lt;pre style=&quot;border: 0px; font-stretch: inherit; line-height: inherit; font-family: inherit; font-size-adjust: inherit; font-kerning: inherit; font-variant-alternates: inherit; font-variant-ligatures: inherit; font-variant-numeric: inherit; font-variant-east-asian: inherit; font-variant-position: inherit; font-feature-settings: inherit; font-optical-sizing: inherit; font-variation-settings: inherit; margin-top: 0px; margin-bottom: 0px; padding: 0px; vertical-align: initial;&quot;&gt;&lt;pre style=&quot;border: 0px; font-stretch: inherit; line-height: inherit; font-family: inherit; font-size-adjust: inherit; font-kerning: inherit; font-variant-alternates: inherit; font-variant-ligatures: inherit; font-variant-numeric: inherit; font-variant-east-asian: inherit; font-variant-position: inherit; font-feature-settings: inherit; font-optical-sizing: inherit; font-variation-settings: inherit; margin-top: 0px; margin-bottom: 0px; padding: 0px; vertical-align: initial;&quot;&gt;&lt;pre style=&quot;border: 0px; font-stretch: inherit; line-height: inherit; font-family: inherit; font-size-adjust: inherit; font-kerning: inherit; font-variant-alternates: inherit; font-variant-ligatures: inherit; font-variant-numeric: inherit; font-variant-east-asian: inherit; font-variant-position: inherit; font-feature-settings: inherit; font-optical-sizing: inherit; font-variation-settings: inherit; margin-top: 0px; margin-bottom: 0px; padding: 0px; vertical-align: initial;&quot;&gt;&lt;b&gt;&lt;font style=&quot;font-size: 20px;&quot;&gt;11204&lt;/font&gt;&lt;/b&gt;&lt;/pre&gt;&lt;/pre&gt;&lt;/pre&gt;&lt;/pre&gt;" style="text;html=1;align=center;verticalAlign=middle;whiteSpace=wrap;rounded=0;labelBackgroundColor=#B8DCF0;" vertex="1" parent="1">
          <mxGeometry x="986.25" y="270" width="60" height="30" as="geometry" />
        </mxCell>
      </root>
    </mxGraphModel>
  </diagram>
</mxfile>
